<svg width="109" height="90" viewBox="0 0 109 90" fill="none" xmlns="http://www.w3.org/2000/svg">
<path d="M55.8447 0.814438L55.8457 0.812485C55.8499 0.812741 55.8542 0.814134 55.8584 0.814438C55.8626 0.814777 55.8669 0.81405 55.8711 0.814438L55.8701 0.816391C56.2091 0.844716 56.4617 1.02562 56.6221 1.22557C56.7346 1.36603 56.8106 1.52364 56.8643 1.67186L56.9111 1.81639L56.918 1.83885L56.9229 1.86229C57.0291 2.33265 57.0501 2.86961 57.0088 3.45409V3.45897C56.8858 5.07982 56.1866 8.53257 54.9463 13.7422C54.0261 17.6332 53.0503 22.0386 52.0186 26.958C51.0049 31.8473 50.1551 36.7852 49.4688 41.7715C49.2403 43.4701 49.0588 45.1152 48.9248 46.707L48.8066 48.2812C48.6419 50.7583 48.6001 53.1133 48.6797 55.3457C48.7725 57.1927 48.944 58.4484 49.1611 59.1846L49.2568 59.4697L49.2617 59.4814C49.3124 59.6178 49.3588 59.7215 49.3984 59.7988C49.5035 59.7183 49.6421 59.5874 49.8105 59.3828C50.2128 58.8943 50.6971 58.1093 51.2598 56.9912C52.3805 54.7643 53.7394 51.3683 55.3359 46.7803L55.3379 46.7724L62.2441 27.5078L67.8223 12.0293C69.1816 8.27155 70.0407 5.91537 70.3994 4.96288C70.454 4.81749 70.51 4.67887 70.5654 4.54686C70.5943 4.46387 70.6292 4.37753 70.6758 4.29393C70.7808 4.06487 70.8881 3.86221 70.998 3.69139C71.1016 3.53053 71.2276 3.36534 71.3828 3.23143C71.5363 3.09911 71.7739 2.95019 72.0859 2.93456L72.2422 2.92674L72.3896 2.97752C72.8272 3.12785 73.0747 3.46865 73.209 3.79881L73.2598 3.93846L73.2656 3.95702L73.2705 3.97459C73.3912 4.42124 73.4432 4.88015 73.4277 5.34764L73.4268 5.36815L73.4248 5.38768C73.4109 5.55514 73.3826 5.7248 73.3438 5.89647L73.4043 6.08885L73.3398 6.3203C68.4871 23.6181 64.9985 41.5687 62.875 60.1728C62.2254 65.9249 61.7208 71.515 61.3623 76.9433V76.9443C61.1718 79.8176 61.0261 82.6411 60.9248 85.415L61.1602 86.2793C61.3481 86.8161 61.4693 87.3329 61.4443 87.7871L61.4434 87.8047L61.4414 87.8223C61.4175 88.0632 61.3442 88.3839 61.1084 88.6445C60.8373 88.9441 60.4741 89.0333 60.1543 89.0068V89.0049C60.099 89.0006 60.0584 88.9947 60.0459 88.9922C60.0099 88.985 59.9779 88.9771 59.9551 88.9707C59.9166 88.96 59.8764 88.9459 59.8369 88.9326C59.6884 88.8929 59.5476 88.8302 59.4355 88.7734L59.4102 88.7607L59.3867 88.7461C59.3366 88.7162 59.2924 88.6904 59.2549 88.668C59.2174 88.6456 59.1861 88.6272 59.1611 88.6123L59.1338 88.5957L59.1084 88.5771C58.5324 88.1693 58.0946 87.6559 57.8428 87.0293C57.6466 86.541 57.507 86.0857 57.4648 85.6875L57.459 85.6299L57.4609 85.5723C57.5719 82.5957 57.7295 79.5763 57.9336 76.5146C58.2445 71.6954 58.6701 66.7251 59.209 61.6045V61.5986C60.2689 52.1913 61.6917 42.9664 63.4756 33.9238C59.6109 45.3438 56.8754 52.9395 55.2705 56.6963L55.2656 56.709L55.2588 56.7226C54.4102 58.5272 53.5629 59.9626 52.709 60.998L52.7041 61.0039C51.8951 61.9673 51.1597 62.6924 50.5049 63.1113L50.4971 63.1162L50.4902 63.1211C50.2098 63.2919 49.9741 63.4277 49.79 63.5244C49.6989 63.5723 49.6085 63.6174 49.5244 63.6523C49.4706 63.6747 49.3168 63.7391 49.1387 63.748L49.0723 63.751L49.0059 63.7431L48.8584 63.7265V63.7256C48.5373 63.6961 48.1864 63.614 47.8174 63.4941L47.8125 63.4922C47.2715 63.3123 46.8247 62.858 46.4521 62.3555V62.3545C45.8974 61.6203 45.5536 60.5094 45.3408 59.1504C45.1232 57.7605 45.0268 56.0028 45.0439 53.8906V53.8799C45.0636 52.9587 45.1102 51.9162 45.1826 50.7549V50.7539C45.3019 48.8816 45.5493 46.3356 45.9238 43.1221L46.0811 41.8408C46.4856 38.7011 47.1542 34.5243 48.085 29.3164C49.2785 22.3007 51.2185 13.3689 53.9004 2.52635L53.9062 2.49998L53.915 2.47459C53.9959 2.22127 54.1437 1.98007 54.3027 1.76463C54.4761 1.52972 54.6725 1.32074 54.8955 1.14745C55.1006 0.98803 55.4334 0.786153 55.8447 0.814438Z" fill="#FF2116" stroke="#FF2116" stroke-width="1.61895"/>
<mask id="path-2-outside-1_194_842" maskUnits="userSpaceOnUse" x="0" y="21.7324" width="44" height="44" fill="black">
<rect fill="white" y="21.7324" width="44" height="44"/>
<path d="M20.7843 63.9057C17.4879 64.4086 13.8562 64.1851 10.7833 62.9559C8.32491 61.9502 6.09004 60.1623 4.63737 57.9833C2.96121 55.5249 1.84377 52.6196 1.56441 49.7143C1.00569 44.7975 2.68185 39.6014 5.08434 35.2434C6.70463 32.2263 8.77189 29.2651 11.5096 27.142C12.7947 26.1363 14.2473 25.1306 15.9235 24.7395C16.6498 24.5719 17.432 24.6278 18.1025 24.9071C22.237 22.8399 27.3214 22.6723 31.4559 24.5719C34.5288 25.9128 37.1548 28.4271 38.9986 31.2207C40.116 33.0644 41.1217 35.0758 41.6804 37.1989C42.1833 39.2662 42.295 41.4452 42.0157 43.5683C41.5687 46.6413 40.3395 49.5466 38.7751 52.1726C37.0989 55.0221 34.7523 57.4246 32.1263 59.436C28.8858 61.8943 24.8071 63.4029 20.7843 63.9057ZM18.2142 59.2683C18.3819 59.2683 19.0523 59.436 19.1641 59.436C22.1811 59.1566 25.1982 58.2627 27.7683 56.6982C31.7352 54.2957 35.1434 50.3288 36.5961 45.8591C37.2666 43.8477 37.6577 41.6128 37.3224 39.4338C36.7637 35.858 34.3053 32.4498 31.2883 30.4384C30.2826 29.7121 29.0534 29.2651 27.8242 29.0416C26.148 28.7064 24.3601 28.874 22.684 29.321C21.6224 29.6562 20.505 30.0473 19.611 30.7737C18.9964 31.3324 18.2142 31.8352 17.3762 31.8911C16.5381 32.7851 15.8117 33.7349 15.0854 34.7406C13.4651 36.8078 12.0125 39.1545 11.2303 41.6687C10.3922 44.2388 9.88933 46.9765 10.1687 49.7143C10.3363 51.7815 10.9509 53.9605 12.2359 55.6367C12.7947 56.363 13.4093 57.0893 14.1356 57.5922C15.0854 58.2068 16.0911 58.7096 17.1527 59.1007C17.4879 59.2125 17.879 59.2125 18.2142 59.2683Z"/>
</mask>
<path d="M20.7843 63.9057C17.4879 64.4086 13.8562 64.1851 10.7833 62.9559C8.32491 61.9502 6.09004 60.1623 4.63737 57.9833C2.96121 55.5249 1.84377 52.6196 1.56441 49.7143C1.00569 44.7975 2.68185 39.6014 5.08434 35.2434C6.70463 32.2263 8.77189 29.2651 11.5096 27.142C12.7947 26.1363 14.2473 25.1306 15.9235 24.7395C16.6498 24.5719 17.432 24.6278 18.1025 24.9071C22.237 22.8399 27.3214 22.6723 31.4559 24.5719C34.5288 25.9128 37.1548 28.4271 38.9986 31.2207C40.116 33.0644 41.1217 35.0758 41.6804 37.1989C42.1833 39.2662 42.295 41.4452 42.0157 43.5683C41.5687 46.6413 40.3395 49.5466 38.7751 52.1726C37.0989 55.0221 34.7523 57.4246 32.1263 59.436C28.8858 61.8943 24.8071 63.4029 20.7843 63.9057ZM18.2142 59.2683C18.3819 59.2683 19.0523 59.436 19.1641 59.436C22.1811 59.1566 25.1982 58.2627 27.7683 56.6982C31.7352 54.2957 35.1434 50.3288 36.5961 45.8591C37.2666 43.8477 37.6577 41.6128 37.3224 39.4338C36.7637 35.858 34.3053 32.4498 31.2883 30.4384C30.2826 29.7121 29.0534 29.2651 27.8242 29.0416C26.148 28.7064 24.3601 28.874 22.684 29.321C21.6224 29.6562 20.505 30.0473 19.611 30.7737C18.9964 31.3324 18.2142 31.8352 17.3762 31.8911C16.5381 32.7851 15.8117 33.7349 15.0854 34.7406C13.4651 36.8078 12.0125 39.1545 11.2303 41.6687C10.3922 44.2388 9.88933 46.9765 10.1687 49.7143C10.3363 51.7815 10.9509 53.9605 12.2359 55.6367C12.7947 56.363 13.4093 57.0893 14.1356 57.5922C15.0854 58.2068 16.0911 58.7096 17.1527 59.1007C17.4879 59.2125 17.879 59.2125 18.2142 59.2683Z" fill="#FF2116"/>
<path d="M20.7843 63.9057L20.6606 62.9157L20.6472 62.9174L20.6339 62.9194L20.7843 63.9057ZM10.7833 62.9559L10.4055 63.8794L10.4127 63.8822L10.7833 62.9559ZM4.63737 57.9833L5.46756 57.4298L5.46171 57.4212L4.63737 57.9833ZM1.56441 49.7143L2.55755 49.6188L2.55672 49.6102L2.55575 49.6016L1.56441 49.7143ZM5.08434 35.2434L5.95813 35.7251L5.96332 35.7155L5.08434 35.2434ZM11.5096 27.142L12.121 27.9304L12.1245 27.9277L11.5096 27.142ZM15.9235 24.7395L15.6991 23.7673L15.6968 23.7679L15.9235 24.7395ZM18.1025 24.9071L17.7188 25.8281L18.1403 26.0037L18.5487 25.7995L18.1025 24.9071ZM31.4559 24.5719L31.0393 25.4785L31.0481 25.4825L31.0569 25.4863L31.4559 24.5719ZM38.9986 31.2207L39.8518 30.7035L39.8419 30.6871L39.8313 30.6711L38.9986 31.2207ZM41.6804 37.1989L42.6499 36.9631L42.6477 36.9541L42.6453 36.945L41.6804 37.1989ZM42.0157 43.5683L43.0031 43.712L43.0049 43.6985L42.0157 43.5683ZM38.7751 52.1726L37.9179 51.662L37.9151 51.6668L38.7751 52.1726ZM32.1263 59.436L32.7294 60.2308L32.733 60.228L32.1263 59.436ZM18.2142 59.2683L18.0502 60.2525L18.1317 60.2661H18.2142V59.2683ZM19.1641 59.436V60.4337H19.2102L19.2561 60.4294L19.1641 59.436ZM27.7683 56.6982L27.2515 55.8448L27.2496 55.846L27.7683 56.6982ZM36.5961 45.8591L35.6496 45.5436L35.6472 45.5507L36.5961 45.8591ZM37.3224 39.4338L38.3085 39.2821L38.3082 39.2798L37.3224 39.4338ZM31.2883 30.4384L30.7041 31.2473L30.7193 31.2582L30.7348 31.2686L31.2883 30.4384ZM27.8242 29.0416L27.6285 30.02L27.6371 30.0217L27.6457 30.0233L27.8242 29.0416ZM22.684 29.321L22.4269 28.357L22.4051 28.3628L22.3835 28.3696L22.684 29.321ZM19.611 30.7737L18.9819 29.9993L18.9604 30.0168L18.9399 30.0354L19.611 30.7737ZM17.3762 31.8911L17.3098 30.8956L16.9173 30.9218L16.6483 31.2087L17.3762 31.8911ZM15.0854 34.7406L15.8707 35.3561L15.8828 35.3406L15.8942 35.3247L15.0854 34.7406ZM11.2303 41.6687L12.1789 41.978L12.1829 41.9651L11.2303 41.6687ZM10.1687 49.7143L11.1631 49.6336L11.1623 49.6233L11.1612 49.613L10.1687 49.7143ZM12.2359 55.6367L11.4442 56.2437L11.4451 56.245L12.2359 55.6367ZM14.1356 57.5922L13.5677 58.4125L13.5805 58.4214L13.5936 58.4298L14.1356 57.5922ZM17.1527 59.1007L16.8078 60.0369L16.8224 60.0423L16.8372 60.0472L17.1527 59.1007ZM20.7843 63.9057L20.6339 62.9194C17.4722 63.4017 14.0267 63.1787 11.1538 62.0295L10.7833 62.9559L10.4127 63.8822C13.6857 65.1914 17.5036 65.4154 20.9348 64.892L20.7843 63.9057ZM10.7833 62.9559L11.161 62.0325C8.87822 61.0986 6.80454 59.4354 5.46751 57.4299L4.63737 57.9833L3.80722 58.5367C5.37553 60.8892 7.77161 62.8018 10.4055 63.8793L10.7833 62.9559ZM4.63737 57.9833L5.46171 57.4212C3.871 55.0882 2.81933 52.3413 2.55755 49.6188L1.56441 49.7143L0.571281 49.8097C0.868217 52.8979 2.05142 55.9617 3.81303 58.5453L4.63737 57.9833ZM1.56441 49.7143L2.55575 49.6016C2.02932 44.969 3.60884 39.9865 5.95808 35.7251L5.08434 35.2434L4.21061 34.7618C1.75486 39.2164 -0.0179306 44.626 0.573081 49.8269L1.56441 49.7143ZM5.08434 35.2434L5.96332 35.7155C7.55134 32.7585 9.53879 29.933 12.121 27.9304L11.5096 27.142L10.8982 26.3536C8.00499 28.5973 5.85791 31.6942 4.20536 34.7714L5.08434 35.2434ZM11.5096 27.142L12.1245 27.9277C13.396 26.9326 14.702 26.0491 16.1502 25.7111L15.9235 24.7395L15.6968 23.7679C13.7927 24.2122 12.1933 25.34 10.8947 26.3563L11.5096 27.142ZM15.9235 24.7395L16.1478 25.7117C16.6831 25.5882 17.2517 25.6335 17.7188 25.8281L18.1025 24.9071L18.4862 23.9862C17.6124 23.6221 16.6166 23.5556 15.6991 23.7674L15.9235 24.7395ZM18.1025 24.9071L18.5487 25.7995C22.427 23.8603 27.194 23.7117 31.0393 25.4785L31.4559 24.5719L31.8724 23.6653C27.4487 21.6328 22.047 21.8194 17.6563 24.0147L18.1025 24.9071ZM31.4559 24.5719L31.0569 25.4863C33.9123 26.7324 36.4009 29.096 38.1659 31.7702L38.9986 31.2207L39.8313 30.6711C37.9087 27.7581 35.1454 25.0933 31.8549 23.6575L31.4559 24.5719ZM38.9986 31.2207L38.1453 31.7378C39.2373 33.5395 40.1908 35.4587 40.7156 37.4529L41.6804 37.1989L42.6453 36.945C42.0527 34.693 40.9947 32.5893 39.8518 30.7035L38.9986 31.2207ZM41.6804 37.1989L40.711 37.4348C41.1842 39.3801 41.2901 41.435 41.0265 43.4382L42.0157 43.5683L43.0049 43.6985C43.3 41.4554 43.1824 39.1523 42.6499 36.9631L41.6804 37.1989ZM42.0157 43.5683L41.0283 43.4247C40.6056 46.3313 39.4373 49.1116 37.918 51.662L38.7751 52.1726L39.6322 52.6833C41.2417 49.9817 42.5318 46.9513 43.003 43.712L42.0157 43.5683ZM38.7751 52.1726L37.9151 51.6668C36.3203 54.378 34.0722 56.6887 31.5197 58.6439L32.1263 59.436L32.733 60.228C35.4324 58.1604 37.8776 55.6661 39.6351 52.6785L38.7751 52.1726ZM32.1263 59.436L31.5233 58.6411C28.4405 60.9798 24.533 62.4317 20.6606 62.9157L20.7843 63.9057L20.9081 64.8957C25.0813 64.3741 29.3311 62.8088 32.7293 60.2308L32.1263 59.436ZM18.2142 59.2683V60.2661C18.1681 60.2661 18.1447 60.2616 18.1675 60.2646C18.1818 60.2665 18.2062 60.2703 18.2426 60.2768C18.3156 60.2898 18.4063 60.3081 18.508 60.3292C18.6032 60.3489 18.713 60.372 18.8025 60.3893C18.8476 60.398 18.8973 60.4072 18.9441 60.4145C18.972 60.4189 19.064 60.4337 19.1641 60.4337V59.436V58.4383C19.2361 58.4383 19.2828 58.4478 19.252 58.443C19.2401 58.4411 19.2177 58.4372 19.1817 58.4302C19.1088 58.4161 19.0196 58.3973 18.9122 58.3751C18.8114 58.3543 18.696 58.3307 18.5927 58.3123C18.5409 58.3031 18.4846 58.2938 18.4296 58.2865C18.3833 58.2803 18.3023 58.2706 18.2142 58.2706V59.2683ZM19.1641 59.436L19.2561 60.4294C22.4008 60.1382 25.5686 59.2052 28.2871 57.5505L27.7683 56.6982L27.2496 55.846C24.8279 57.3201 21.9615 58.175 19.0721 58.4425L19.1641 59.436ZM27.7683 56.6982L28.2852 57.5516C32.4314 55.0406 36.0096 50.8916 37.545 46.1675L36.5961 45.8591L35.6472 45.5507C34.2772 49.7661 31.0391 53.5509 27.2515 55.8448L27.7683 56.6982ZM36.5961 45.8591L37.5426 46.1746C38.2425 44.0748 38.6762 41.6716 38.3085 39.2821L37.3224 39.4338L36.3363 39.5855C36.6392 41.554 36.2906 43.6206 35.6496 45.5436L36.5961 45.8591ZM37.3224 39.4338L38.3082 39.2798C37.6995 35.3845 35.0518 31.7483 31.8417 29.6083L31.2883 30.4384L30.7348 31.2686C33.5589 33.1513 35.8279 36.3316 36.3367 39.5878L37.3224 39.4338ZM31.2883 30.4384L31.8724 29.6296C30.7167 28.7949 29.3379 28.3028 28.0027 28.06L27.8242 29.0416L27.6457 30.0233C28.7689 30.2275 29.8484 30.6293 30.7041 31.2473L31.2883 30.4384ZM27.8242 29.0416L28.0199 28.0633C26.1528 27.6899 24.2045 27.883 22.4269 28.357L22.684 29.321L22.9411 30.285C24.5158 29.8651 26.1433 29.7229 27.6285 30.02L27.8242 29.0416ZM22.684 29.321L22.3835 28.3696C21.3264 28.7035 20.0394 29.1401 18.9819 29.9993L19.611 30.7737L20.2402 31.548C20.9706 30.9546 21.9185 30.609 22.9844 30.2724L22.684 29.321ZM19.611 30.7737L18.9399 30.0354C18.3854 30.5395 17.8123 30.8621 17.3098 30.8956L17.3762 31.8911L17.4425 32.8866C18.6162 32.8084 19.6075 32.1253 20.2822 31.5119L19.611 30.7737ZM17.3762 31.8911L16.6483 31.2087C15.767 32.1488 15.0116 33.1387 14.2766 34.1564L15.0854 34.7406L15.8942 35.3247C16.6119 34.331 17.3092 33.4213 18.104 32.5735L17.3762 31.8911ZM15.0854 34.7406L14.3002 34.1251C12.6387 36.2449 11.109 38.6999 10.2776 41.3723L11.2303 41.6687L12.1829 41.9651C12.9159 39.609 14.2915 37.3708 15.8707 35.3561L15.0854 34.7406ZM11.2303 41.6687L10.2817 41.3594C9.41759 44.0093 8.87795 46.8934 9.17613 49.8155L10.1687 49.7143L11.1612 49.613C10.9007 47.0597 11.3668 44.4683 12.1788 41.978L11.2303 41.6687ZM10.1687 49.7143L9.17424 49.7949C9.35157 51.982 10.0053 54.3669 11.4442 56.2437L12.2359 55.6367L13.0277 55.0296C11.8965 53.5541 11.321 51.581 11.1631 49.6336L10.1687 49.7143ZM12.2359 55.6367L11.4451 56.245C12.0111 56.9807 12.7048 57.8151 13.5677 58.4125L14.1356 57.5922L14.7035 56.7719C14.1137 56.3636 13.5783 55.7453 13.0268 55.0284L12.2359 55.6367ZM14.1356 57.5922L13.5936 58.4298C14.6053 59.0845 15.6771 59.6204 16.8078 60.0369L17.1527 59.1007L17.4976 58.1645C16.5052 57.7989 15.5656 57.3291 14.6776 56.7545L14.1356 57.5922ZM17.1527 59.1007L16.8372 60.0472C17.1063 60.137 17.3719 60.1739 17.5691 60.1966C17.805 60.2239 17.9141 60.2298 18.0502 60.2525L18.2142 59.2683L18.3783 58.2842C18.1791 58.251 17.925 58.229 17.7978 58.2144C17.6318 58.1952 17.5343 58.1763 17.4682 58.1542L17.1527 59.1007Z" fill="white" mask="url(#path-2-outside-1_194_842)"/>
<path d="M75.4028 37.8279C73.8384 38.4984 71.8829 37.7162 71.7152 35.9841C71.6594 35.0343 71.9387 34.0286 72.5533 33.2464C72.9444 32.6877 73.559 32.4642 74.1177 32.0172C75.5145 30.8439 77.6377 31.7937 77.9729 33.6375C78.0846 34.4756 77.8053 35.4254 77.4142 36.2076C77.0231 36.934 76.185 37.4927 75.4028 37.8279ZM76.4085 62.4674C76.2409 63.7525 74.9558 64.7023 73.7825 64.4229C72.6092 64.1994 71.5476 63.3614 70.933 62.3557C69.9832 60.6795 69.7039 58.5564 69.7597 56.6009C69.9273 52.8575 70.4302 49.114 70.9889 45.3706C71.1007 44.6443 71.2683 43.8621 71.7152 43.3034C72.8327 41.9066 74.9558 41.9066 76.0733 43.3592C76.4085 43.7503 76.6878 44.3091 76.6878 44.8678C76.4644 49.561 75.9615 54.2543 76.185 58.9475C76.185 59.1151 76.185 60.2325 76.185 60.4002C76.2409 60.6795 76.4644 62.1881 76.4085 62.4674Z" fill="#FF2116"/>
<mask id="path-5-outside-2_194_842" maskUnits="userSpaceOnUse" x="78.5234" y="37.334" width="30" height="29" fill="black">
<rect fill="white" x="78.5234" y="37.334" width="30" height="29"/>
<path d="M105.621 63.8083C104.448 65.0375 102.046 65.0934 100.76 63.8642C99.5871 62.6909 99.0284 60.903 98.5815 59.2827C97.5758 55.7628 97.0729 52.0752 96.7935 48.3877C96.7377 47.6055 96.6818 46.7674 96.5142 45.9852C96.1231 46.097 95.732 46.2646 95.3968 46.4322C93.8323 47.3261 92.4914 48.6671 91.374 50.0639C89.0832 52.6898 87.5188 55.9863 86.4014 59.2827C86.122 60.2325 85.8985 61.2941 85.1722 61.9646C84.7811 62.3557 84.3341 62.6909 83.8313 62.8585C82.9932 63.082 81.9316 63.0261 81.2612 62.5233C80.8142 62.2439 80.3672 61.8528 80.1437 61.35C79.7526 60.5119 79.6409 59.5621 79.6967 58.6681C79.7526 58.2212 80.1996 55.8187 80.3113 55.3717C80.4231 54.5895 80.9818 51.293 81.3729 50.6226C81.4288 50.5108 81.5405 49.7845 81.5964 49.6728C82.3786 46.4322 83.1049 43.2475 84.2224 40.1745C84.7252 38.7219 86.4572 37.9397 87.5188 39.0571C88.0217 39.5599 88.301 40.6774 88.0217 41.3478C87.6864 42.0183 87.1836 45.3706 87.0718 46.097C88.3569 44.7002 89.8096 43.3592 91.374 42.2418C92.659 41.3478 94.1676 40.5098 95.732 40.2863C97.017 40.0628 98.5256 40.2304 99.5871 40.9567C100.258 41.3478 100.872 41.8507 101.263 42.5212C102.213 44.1414 102.884 45.9852 103.386 47.829C104.113 50.7902 104.727 53.7514 105.677 56.6567C105.901 57.3831 106.85 60.2325 106.795 60.9589C106.795 61.4059 106.739 61.8528 106.627 62.2998C106.404 62.8585 106.012 63.3614 105.621 63.8083Z"/>
</mask>
<path d="M105.621 63.8083C104.448 65.0375 102.046 65.0934 100.76 63.8642C99.5871 62.6909 99.0284 60.903 98.5815 59.2827C97.5758 55.7628 97.0729 52.0752 96.7935 48.3877C96.7377 47.6055 96.6818 46.7674 96.5142 45.9852C96.1231 46.097 95.732 46.2646 95.3968 46.4322C93.8323 47.3261 92.4914 48.6671 91.374 50.0639C89.0832 52.6898 87.5188 55.9863 86.4014 59.2827C86.122 60.2325 85.8985 61.2941 85.1722 61.9646C84.7811 62.3557 84.3341 62.6909 83.8313 62.8585C82.9932 63.082 81.9316 63.0261 81.2612 62.5233C80.8142 62.2439 80.3672 61.8528 80.1437 61.35C79.7526 60.5119 79.6409 59.5621 79.6967 58.6681C79.7526 58.2212 80.1996 55.8187 80.3113 55.3717C80.4231 54.5895 80.9818 51.293 81.3729 50.6226C81.4288 50.5108 81.5405 49.7845 81.5964 49.6728C82.3786 46.4322 83.1049 43.2475 84.2224 40.1745C84.7252 38.7219 86.4572 37.9397 87.5188 39.0571C88.0217 39.5599 88.301 40.6774 88.0217 41.3478C87.6864 42.0183 87.1836 45.3706 87.0718 46.097C88.3569 44.7002 89.8096 43.3592 91.374 42.2418C92.659 41.3478 94.1676 40.5098 95.732 40.2863C97.017 40.0628 98.5256 40.2304 99.5871 40.9567C100.258 41.3478 100.872 41.8507 101.263 42.5212C102.213 44.1414 102.884 45.9852 103.386 47.829C104.113 50.7902 104.727 53.7514 105.677 56.6567C105.901 57.3831 106.85 60.2325 106.795 60.9589C106.795 61.4059 106.739 61.8528 106.627 62.2998C106.404 62.8585 106.012 63.3614 105.621 63.8083Z" fill="#FF2116"/>
<path d="M105.621 63.8083L106.343 64.4972L106.358 64.4816L106.372 64.4653L105.621 63.8083ZM100.76 63.8642L100.055 64.5697L100.063 64.5775L100.071 64.5852L100.76 63.8642ZM98.5815 59.2827L99.5433 59.0174L99.5408 59.0086L98.5815 59.2827ZM96.7936 48.3877L95.7984 48.4588L95.7987 48.4631L96.7936 48.3877ZM96.5142 45.9852L97.4898 45.7762L97.2662 44.7327L96.2401 45.0259L96.5142 45.9852ZM95.3968 46.4322L94.9506 45.5398L94.9258 45.5522L94.9017 45.5659L95.3968 46.4322ZM91.374 50.0639L92.1258 50.7197L92.1398 50.7037L92.1531 50.6871L91.374 50.0639ZM86.4014 59.2827L85.4565 58.9624L85.4499 58.9817L85.4442 59.0012L86.4014 59.2827ZM85.1722 61.9646L84.4955 61.2314L84.4808 61.245L84.4667 61.2591L85.1722 61.9646ZM83.8313 62.8585L84.0883 63.8225L84.1178 63.8147L84.1468 63.805L83.8313 62.8585ZM81.2612 62.5233L81.8598 61.7251L81.8259 61.6997L81.7899 61.6772L81.2612 62.5233ZM80.1437 61.35L81.0554 60.9448L81.0517 60.9364L81.0478 60.9281L80.1437 61.35ZM79.6967 58.6681L78.7067 58.5444L78.7029 58.575L78.701 58.6059L79.6967 58.6681ZM80.3113 55.3717L81.2793 55.6137L81.2917 55.5637L81.299 55.5128L80.3113 55.3717ZM81.3729 50.6226L82.2347 51.1253L82.2509 51.0975L82.2653 51.0688L81.3729 50.6226ZM81.5964 49.6728L82.4888 50.1189L82.5396 50.0173L82.5663 49.9069L81.5964 49.6728ZM84.2224 40.1745L85.16 40.5155L85.1627 40.5082L85.1652 40.5009L84.2224 40.1745ZM87.5188 39.0571L86.7955 39.7443L86.8043 39.7535L86.8133 39.7626L87.5188 39.0571ZM88.0217 41.3478L88.914 41.794L88.9294 41.7633L88.9426 41.7316L88.0217 41.3478ZM87.0718 46.097L86.0857 45.9452L85.5875 49.184L87.8061 46.7725L87.0718 46.097ZM91.374 42.2418L90.8042 41.4227L90.7941 41.4299L91.374 42.2418ZM95.732 40.2863L95.8731 41.274L95.888 41.2718L95.9029 41.2692L95.732 40.2863ZM99.5871 40.9567L99.0238 41.7802L99.0534 41.8004L99.0844 41.8185L99.5871 40.9567ZM101.263 42.5212L100.401 43.0239L100.403 43.0257L101.263 42.5212ZM103.386 47.829L104.355 47.5913L104.352 47.5788L104.349 47.5665L103.386 47.829ZM105.677 56.6567L106.631 56.3633L106.628 56.355L106.626 56.3467L105.677 56.6567ZM106.795 60.9589L105.8 60.8824L105.797 60.9206V60.9589H106.795ZM106.627 62.2998L107.553 62.6703L107.579 62.6075L107.595 62.5418L106.627 62.2998ZM105.621 63.8083L104.9 63.1194C104.538 63.4985 103.923 63.7497 103.217 63.7606C102.516 63.7714 101.866 63.5411 101.45 63.1432L100.76 63.8642L100.071 64.5852C100.94 65.4165 102.134 65.7729 103.248 65.7558C104.359 65.7387 105.532 65.3473 106.343 64.4972L105.621 63.8083ZM100.76 63.8642L101.466 63.1587C100.505 62.1982 99.9988 60.6687 99.5432 59.0174L98.5815 59.2827L97.6197 59.548C98.0581 61.1373 98.6689 63.1837 100.055 64.5697L100.76 63.8642ZM98.5815 59.2827L99.5408 59.0086C98.5606 55.5779 98.065 51.9637 97.7884 48.3123L96.7936 48.3877L95.7987 48.4631C96.0808 52.1868 96.5909 55.9477 97.6221 59.5568L98.5815 59.2827ZM96.7936 48.3877L97.7887 48.3166C97.7341 47.5525 97.6749 46.64 97.4898 45.7762L96.5142 45.9852L95.5386 46.1943C95.6887 46.8948 95.7412 47.6585 95.7984 48.4588L96.7936 48.3877ZM96.5142 45.9852L96.2401 45.0259C95.771 45.1599 95.3203 45.3549 94.9506 45.5398L95.3968 46.4322L95.8429 47.3246C96.1436 47.1742 96.4752 47.034 96.7883 46.9445L96.5142 45.9852ZM95.3968 46.4322L94.9017 45.5659C93.1861 46.5463 91.7535 47.9923 90.5949 49.4406L91.374 50.0639L92.1531 50.6871C93.2293 49.3418 94.4786 48.106 95.8918 47.2984L95.3968 46.4322ZM91.374 50.0639L90.6221 49.408C88.2132 52.1695 86.5962 55.6003 85.4565 58.9624L86.4014 59.2827L87.3463 59.603C88.4414 56.3723 89.9533 53.2102 92.1258 50.7197L91.374 50.0639ZM86.4014 59.2827L85.4442 59.0012C85.2886 59.5303 85.1856 59.9517 85.0243 60.3675C84.8707 60.7632 84.7027 61.0402 84.4955 61.2314L85.1722 61.9646L85.8489 62.6977C86.3681 62.2185 86.6749 61.6295 86.8845 61.0894C87.0864 60.5692 87.2348 59.9849 87.3585 59.5642L86.4014 59.2827ZM85.1722 61.9646L84.4667 61.2591C84.1332 61.5926 83.815 61.8122 83.5158 61.912L83.8313 62.8585L84.1468 63.805C84.8532 63.5696 85.429 63.1188 85.8777 62.6701L85.1722 61.9646ZM83.8313 62.8585L83.5742 61.8945C82.9011 62.074 82.1947 61.9763 81.8598 61.7251L81.2612 62.5233L80.6625 63.3215C81.6686 64.076 83.0852 64.09 84.0883 63.8225L83.8313 62.8585ZM81.2612 62.5233L81.7899 61.6772C81.4195 61.4457 81.163 61.1868 81.0554 60.9448L80.1437 61.35L79.232 61.7552C79.5714 62.5188 80.2089 63.0422 80.7324 63.3694L81.2612 62.5233ZM80.1437 61.35L81.0478 60.9281C80.7459 60.2811 80.6439 59.5082 80.6925 58.7304L79.6967 58.6681L78.701 58.6059C78.6378 59.616 78.7593 60.7427 79.2396 61.7719L80.1437 61.35ZM79.6967 58.6681L80.6868 58.7919C80.7377 58.3841 81.1774 56.0211 81.2793 55.6137L80.3113 55.3717L79.3434 55.1297C79.2218 55.6163 78.7675 58.0583 78.7067 58.5444L79.6967 58.6681ZM80.3113 55.3717L81.299 55.5128C81.3521 55.1414 81.5164 54.1404 81.7154 53.1522C81.8149 52.6582 81.9206 52.1799 82.0227 51.7909C82.0739 51.5961 82.1216 51.4337 82.1643 51.3079C82.2113 51.1695 82.2373 51.1209 82.2347 51.1253L81.3729 50.6226L80.5111 50.1199C80.3343 50.4229 80.1974 50.8856 80.0928 51.2841C79.9767 51.7262 79.8623 52.2466 79.7593 52.7583C79.5532 53.7815 79.3823 54.8198 79.3237 55.2306L80.3113 55.3717ZM81.3729 50.6226L82.2653 51.0688C82.3199 50.9596 82.349 50.8523 82.3579 50.8202C82.3726 50.7668 82.3859 50.7109 82.397 50.6613C82.4193 50.5619 82.4427 50.4445 82.463 50.3433C82.4847 50.235 82.5031 50.1429 82.5192 50.0711C82.5273 50.0352 82.5324 50.0151 82.5346 50.007C82.5428 49.9776 82.5294 50.0377 82.4888 50.1189L81.5964 49.6728L80.704 49.2266C80.6494 49.3357 80.6203 49.443 80.6114 49.4751C80.5967 49.5285 80.5834 49.5845 80.5723 49.6341C80.55 49.7334 80.5266 49.8508 80.5063 49.952C80.4846 50.0603 80.4662 50.1525 80.4501 50.2242C80.442 50.2602 80.4369 50.2802 80.4347 50.2883C80.4265 50.3178 80.4399 50.2576 80.4805 50.1764L81.3729 50.6226ZM81.5964 49.6728L82.5663 49.9069C83.3538 46.6443 84.0662 43.5236 85.16 40.5155L84.2224 40.1745L83.2847 39.8336C82.1437 42.9714 81.4034 46.2201 80.6265 49.4387L81.5964 49.6728ZM84.2224 40.1745L85.1652 40.5009C85.3229 40.0453 85.6712 39.7147 86.0137 39.5854C86.3218 39.4689 86.5796 39.517 86.7955 39.7443L87.5188 39.0571L88.2422 38.3699C87.3965 37.4797 86.2574 37.3602 85.3085 37.7187C84.3939 38.0642 83.6247 38.8511 83.2795 39.8482L84.2224 40.1745ZM87.5188 39.0571L86.8133 39.7626C86.8927 39.842 87.0207 40.056 87.0911 40.3628C87.1626 40.6742 87.1315 40.8902 87.1007 40.9641L88.0217 41.3478L88.9426 41.7316C89.1912 41.135 89.1601 40.457 89.036 39.9164C88.9109 39.3712 88.6478 38.7751 88.2243 38.3516L87.5188 39.0571ZM88.0217 41.3478L87.1293 40.9017C86.9832 41.1939 86.8666 41.6474 86.7749 42.0482C86.6738 42.4903 86.5729 43.0125 86.4809 43.5254C86.2967 44.5526 86.1411 45.5854 86.0857 45.9452L87.0718 46.097L88.058 46.2487C88.1143 45.8821 88.266 44.8756 88.445 43.8775C88.5346 43.3777 88.6292 42.8907 88.7201 42.493C88.7657 42.2939 88.8083 42.1261 88.8467 41.995C88.8658 41.9297 88.8823 41.8789 88.8959 41.8411C88.9103 41.8009 88.9169 41.7883 88.914 41.794L88.0217 41.3478ZM87.0718 46.097L87.8061 46.7725C89.0548 45.4152 90.4566 44.1231 91.9539 43.0537L91.374 42.2418L90.7941 41.4299C89.1625 42.5953 87.659 43.9851 86.3376 45.4214L87.0718 46.097ZM91.374 42.2418L91.9437 43.0608C93.1905 42.1935 94.543 41.464 95.8731 41.274L95.732 40.2863L95.5909 39.2986C93.7921 39.5556 92.1276 40.5022 90.8042 41.4228L91.374 42.2418ZM95.732 40.2863L95.9029 41.2692C97.0211 41.0748 98.2416 41.245 99.0238 41.7802L99.5871 40.9567L100.151 40.1333C98.8096 39.2158 97.0129 39.0508 95.561 39.3033L95.732 40.2863ZM99.5871 40.9567L99.0844 41.8185C99.673 42.1619 100.129 42.557 100.401 43.0239L101.263 42.5212L102.125 42.0184C101.615 41.1444 100.842 40.5338 100.09 40.0949L99.5871 40.9567ZM101.263 42.5212L100.403 43.0257C101.292 44.5432 101.934 46.2958 102.424 48.0915L103.386 47.829L104.349 47.5665C103.833 45.6746 103.134 43.7397 102.124 42.0166L101.263 42.5212ZM103.386 47.829L102.417 48.0667C103.133 50.9819 103.763 54.0137 104.729 56.9668L105.677 56.6567L106.626 56.3467C105.691 53.4891 105.093 50.5985 104.355 47.5913L103.386 47.829ZM105.677 56.6567L104.724 56.9502C104.844 57.342 105.126 58.1992 105.382 59.0849C105.509 59.5237 105.623 59.9479 105.701 60.2991C105.74 60.4748 105.768 60.6211 105.784 60.7351C105.802 60.8621 105.798 60.9008 105.8 60.8824L106.795 60.9589L107.789 61.0354C107.816 60.6842 107.73 60.2301 107.649 59.8657C107.558 59.4556 107.431 58.9859 107.299 58.5308C107.038 57.6285 106.734 56.6978 106.631 56.3633L105.677 56.6567ZM106.795 60.9589H105.797C105.797 61.3218 105.752 61.6875 105.659 62.0578L106.627 62.2998L107.595 62.5418C107.726 62.0181 107.792 61.4899 107.792 60.9589H106.795ZM106.627 62.2998L105.701 61.9293C105.543 62.3235 105.247 62.7213 104.87 63.1513L105.621 63.8083L106.372 64.4653C106.778 64.0014 107.264 63.3935 107.553 62.6703L106.627 62.2998Z" fill="white" mask="url(#path-5-outside-2_194_842)"/>
</svg>
