<svg width="767" height="537" viewBox="0 0 767 537" fill="none" xmlns="http://www.w3.org/2000/svg">
<path d="M604.31 303.354L600.684 299.729C598.191 297.236 595.037 294.913 591.188 292.774L591.061 292.704L590.944 292.617C587.574 290.089 584.01 288.206 580.252 286.953L580.193 286.934L580.135 286.91C578.079 286.088 575.792 285.461 573.267 285.04L573.232 285.034L573.199 285.027C571.119 284.611 569.044 284.404 566.972 284.404C556.942 284.404 547.32 290.791 538.194 304.69C529.692 318.315 525.244 343.231 525.244 379.95C525.244 413.495 529.224 438.592 536.999 455.449L537.365 456.211C545.089 472.086 555.218 479.481 567.636 479.481C570.898 479.481 574.645 478.872 578.896 477.604C583.183 475.883 587.481 473.733 591.791 471.147L591.86 471.105L591.934 471.068C593.644 470.213 595.116 469.37 596.356 468.543L596.467 468.47L596.585 468.411C598.296 467.556 599.766 466.713 601.007 465.886L604.31 463.684V519.462L603.136 520.049C593.265 524.984 583.588 528.589 574.107 530.847C564.685 533.09 556.1 534.227 548.367 534.227C533.815 534.226 520.987 530.525 509.969 523.064C499.309 515.847 490.457 505.189 483.359 491.216L482.66 489.817C468.759 460.221 461.862 423.569 461.862 379.95C461.862 350.183 464.027 325.215 468.389 305.085C472.746 284.976 479.327 269.538 488.278 258.98L488.296 258.961C506.341 238.21 527.269 227.667 551.025 227.667C555.09 227.667 559.369 227.893 563.86 228.342C567.797 228.735 571.733 229.301 575.668 230.039L577.354 230.366L577.376 230.37L577.398 230.375C581.412 231.267 585.637 232.378 590.073 233.707C594.548 234.606 598.81 235.729 602.857 237.078L604.31 237.562V303.354Z" fill="#173300" stroke="#173300" stroke-width="4.24841"/>
<path d="M444.064 231.987V529.244H380.683V231.987H444.064Z" fill="#173300" stroke="#173300" stroke-width="4.24841"/>
<path d="M88.5423 525.829L9.09473 240.98H70.4567L105.982 450.903L146.029 240.98H200.286L124.068 525.829H88.5423Z" fill="#173300"/>
<path d="M76.292 234.074L106.389 411.919L140.316 234.074H209.282L129.368 532.734H83.2988L0 234.074H76.292ZM9.09473 240.979L88.542 525.828H124.067L200.286 240.979H146.029L105.982 450.902L70.457 240.979H9.09473Z" fill="#173300"/>
<ellipse cx="277" cy="380.615" rx="78.9286" ry="150.824" fill="#173300"/>
<rect x="326.218" y="43.1523" width="29.7114" height="336.798" fill="#173300"/>
<rect x="326.218" width="122.007" height="104.366" fill="#173300"/>
<rect x="629.111" y="229.791" width="137.564" height="65.8343" fill="#173300"/>
<rect x="629.111" y="360.488" width="105.447" height="54.0153" fill="#173300"/>
<rect x="629.111" y="252.861" width="63.1338" height="246.451" fill="#173300"/>
<rect x="629.111" y="466.447" width="137.564" height="65.9967" fill="#173300"/>
</svg>
