<svg width="768" height="654" viewBox="0 0 768 654" fill="none" xmlns="http://www.w3.org/2000/svg">
<path d="M603.384 467.653V518.149C593.639 523.021 584.116 526.565 574.814 528.78C565.512 530.995 557.096 532.102 549.566 532.102C521.217 532.102 499.956 517.706 485.782 488.915C472.05 459.68 465.185 423.359 465.185 379.95C465.185 320.595 473.822 280.73 491.097 260.354C508.815 239.979 529.19 229.791 552.223 229.791C556.21 229.791 560.418 230.012 564.847 230.455C569.277 230.898 573.706 231.563 578.136 232.449C582.122 233.335 586.33 234.442 590.76 235.771C595.189 236.657 599.397 237.764 603.384 239.093V298.226C600.726 295.569 597.404 293.132 593.418 290.918C589.874 288.26 586.109 286.267 582.122 284.938C579.908 284.052 577.471 283.388 574.814 282.945C572.599 282.502 570.384 282.28 568.17 282.28C557.096 282.28 546.908 289.367 537.606 303.542C528.747 317.716 524.318 343.185 524.318 379.95C524.318 413.614 528.304 439.083 536.277 456.358C544.25 473.19 555.103 481.606 568.834 481.606C572.378 481.606 576.364 480.942 580.794 479.613C585.223 477.841 589.652 475.626 594.082 472.969C595.854 472.083 597.404 471.197 598.733 470.311C600.505 469.425 602.055 468.539 603.384 467.653Z" fill="#173300"/>
<path d="M524.317 379.95C524.317 343.186 528.748 317.716 537.606 303.542C546.908 289.368 557.096 282.28 568.17 282.28L569 282.291C570.938 282.339 572.876 282.557 574.813 282.944C577.471 283.387 579.907 284.052 582.122 284.938C586.109 286.266 589.874 288.26 593.418 290.918C597.404 293.133 600.726 295.569 603.384 298.227V239.093C599.397 237.764 595.189 236.656 590.76 235.771C586.33 234.442 582.122 233.334 578.136 232.448C574.26 231.673 570.384 231.068 566.509 230.632L564.848 230.455C560.972 230.067 557.265 229.85 553.729 229.802L552.224 229.791C529.19 229.791 508.815 239.979 491.097 260.354L490.294 261.323C473.554 281.98 465.185 321.522 465.185 379.95L465.189 381.979C465.401 424.492 472.264 460.137 485.781 488.915C499.955 517.706 521.217 532.101 549.565 532.102C556.625 532.102 564.463 531.128 573.08 529.182L574.813 528.78C584.115 526.566 593.639 523.022 603.384 518.149V467.653C602.055 468.539 600.504 469.425 598.732 470.311C597.404 471.196 595.854 472.083 594.082 472.969L593.251 473.462C589.099 475.901 584.946 477.951 580.794 479.612C576.364 480.941 572.378 481.606 568.834 481.606V477.357C571.815 477.357 575.32 476.803 579.389 475.597C583.534 473.927 587.704 471.841 591.896 469.325L592.036 469.241L592.182 469.169C593.831 468.344 595.224 467.545 596.376 466.776L596.597 466.629L596.833 466.511C598.483 465.686 599.875 464.886 601.027 464.118L607.632 459.715V520.774L605.284 521.949C595.287 526.948 585.457 530.613 575.798 532.913C566.256 535.185 557.502 536.351 549.565 536.351C534.634 536.351 521.383 532.546 509.977 524.823C498.6 517.12 489.302 505.686 481.97 490.791L481.937 490.721C467.865 460.762 460.937 423.779 460.937 379.95C460.937 350.094 463.106 324.963 467.511 304.635C471.906 284.349 478.592 268.534 487.856 257.606L487.874 257.587L487.891 257.566C506.262 236.439 527.745 225.543 552.224 225.543C556.366 225.543 560.717 225.773 565.271 226.229C569.84 226.685 574.406 227.371 578.969 228.283L579.014 228.292L579.058 228.302C583.101 229.2 587.348 230.316 591.796 231.646C596.312 232.558 600.623 233.694 604.728 235.062L607.632 236.031V308.482L600.38 301.23C598.053 298.904 595.067 296.694 591.354 294.632L591.101 294.49L590.868 294.316C587.67 291.918 584.31 290.145 580.779 288.968L580.66 288.929L580.545 288.883C578.647 288.124 576.51 287.534 574.115 287.135L574.048 287.124L573.98 287.11C572.035 286.721 570.099 286.528 568.17 286.528C559.186 286.528 550.132 292.213 541.186 305.829C533.034 318.903 528.566 343.268 528.566 379.95C528.566 413.375 532.541 438.098 540.117 454.539L540.473 455.281C547.983 470.721 557.515 477.357 568.834 477.357V481.606L568.192 481.6C554.764 481.341 544.126 472.927 536.277 456.358C528.553 439.623 524.57 415.198 524.329 383.082L524.317 379.95Z" fill="#173300"/>
<path d="M384.005 527.12V234.111H443.138V527.12H384.005Z" fill="#173300"/>
<path d="M443.138 234.111H384.005V527.12H443.138V234.111ZM447.387 531.369H379.757V229.863H447.387V531.369Z" fill="#173300"/>
<path d="M87.9196 531.152L7.38623 242.41H69.5868L105.598 455.201L146.192 242.41H201.19L123.93 531.152H87.9196Z" fill="#173300"/>
<path d="M74.3252 236.802L105.928 423.543L141.553 236.802H208.496L128.235 536.76H83.6621L0 236.802H74.3252ZM7.38672 242.41L87.9199 531.151H123.931L201.19 242.41H146.191L105.598 455.201L69.5869 242.41H7.38672Z" fill="#173300"/>
<path d="M357.127 380.615C357.127 463.912 321.789 531.438 278.198 531.438C234.607 531.438 199.27 463.912 199.27 380.615C199.27 297.317 234.607 229.791 278.198 229.791C321.789 229.791 357.127 297.317 357.127 380.615Z" fill="#173300"/>
<path d="M327.416 43.1523H357.127V379.95H327.416V43.1523Z" fill="#173300"/>
<path d="M327.416 0H447.319V104.366H327.416V0Z" fill="#173300"/>
<path d="M630.31 229.791H767.874V295.625H630.31V229.791Z" fill="#173300"/>
<path d="M630.31 360.488H735.756V414.504H630.31V360.488Z" fill="#173300"/>
<path d="M630.31 252.861H696.766V499.313H630.31V252.861Z" fill="#173300"/>
<path d="M630.31 466.447H767.874V532.444H630.31V466.447Z" fill="#173300"/>
<path d="M714.506 587.194C718.957 587.194 723.186 588.057 727.192 589.782C731.198 591.451 734.704 593.816 737.708 596.876C740.769 599.881 743.161 603.386 744.886 607.392C746.611 611.399 747.474 615.6 747.474 619.995C747.474 624.558 746.611 628.87 744.886 632.932C743.217 636.938 740.852 640.444 737.792 643.448C734.787 646.397 731.282 648.706 727.276 650.376C723.269 651.989 719.013 652.796 714.506 652.796C709.999 652.796 705.742 651.989 701.736 650.376C697.73 648.706 694.197 646.397 691.136 643.448C688.132 640.444 685.767 636.938 684.042 632.932C682.373 628.87 681.538 624.558 681.538 619.995C681.538 615.6 682.401 611.399 684.125 607.392C685.85 603.386 688.215 599.881 691.22 596.876C694.28 593.816 697.813 591.451 701.82 589.782C705.826 588.057 710.055 587.194 714.506 587.194ZM714.506 645.451C717.9 645.451 721.099 644.811 724.104 643.532C727.164 642.252 729.863 640.444 732.2 638.107C734.537 635.77 736.345 633.043 737.625 629.927C738.96 626.811 739.628 623.501 739.628 619.995C739.628 616.545 739.016 613.29 737.792 610.23C736.568 607.114 734.815 604.388 732.534 602.051C730.308 599.658 727.637 597.822 724.521 596.542C721.461 595.207 718.123 594.539 714.506 594.539C710.889 594.539 707.523 595.207 704.407 596.542C701.347 597.822 698.676 599.658 696.394 602.051C694.169 604.388 692.444 607.114 691.22 610.23C689.996 613.29 689.384 616.545 689.384 619.995C689.384 623.501 690.023 626.811 691.303 629.927C692.639 633.043 694.475 635.77 696.812 638.107C699.149 640.444 701.819 642.252 704.824 643.532C707.884 644.811 711.112 645.451 714.506 645.451Z" fill="#173300"/>
<path d="M590.695 588.53V651.461H582.85V588.53H590.695Z" fill="#173300"/>
<path d="M443.463 651.461V588.53H456.484C461.38 588.53 465.943 589.198 470.171 590.533C474.456 591.813 478.212 593.761 481.439 596.376C484.722 598.935 487.254 602.19 489.034 606.141C490.87 610.036 491.788 614.543 491.788 619.662C491.788 624.892 490.898 629.51 489.118 633.517C487.337 637.523 484.805 640.861 481.522 643.532C478.295 646.203 474.512 648.206 470.171 649.542C465.887 650.821 461.241 651.461 456.233 651.461H443.463ZM451.309 595.708V644.283H454.063C458.292 644.283 462.187 643.866 465.748 643.031C469.309 642.141 472.453 640.75 475.179 638.858C477.906 636.967 480.048 634.463 481.606 631.347C483.164 628.175 483.943 624.391 483.943 619.996C483.943 615.544 483.164 611.761 481.606 608.645C480.048 605.473 477.906 602.942 475.179 601.05C472.453 599.158 469.281 597.795 465.664 596.96C462.103 596.125 458.236 595.708 454.063 595.708H451.309Z" fill="#173300"/>
<path d="M303.751 588.53H311.597V625.671C311.597 628.453 311.82 631.013 312.265 633.35C312.765 635.631 313.572 637.69 314.685 639.526C315.854 641.362 317.439 642.809 319.442 643.866C321.446 644.923 323.894 645.452 326.787 645.452C329.681 645.452 332.129 644.923 334.132 643.866C336.135 642.809 337.693 641.362 338.806 639.526C339.974 637.69 340.781 635.631 341.226 633.35C341.727 631.013 341.977 628.453 341.977 625.671V588.53H349.823V628.342C349.823 631.792 349.294 635.019 348.237 638.024C347.18 641.028 345.65 643.644 343.647 645.869C341.699 648.039 339.279 649.736 336.385 650.96C333.548 652.185 330.348 652.797 326.787 652.797C323.226 652.797 320.027 652.185 317.189 650.96C314.351 649.736 311.931 648.011 309.928 645.786C307.925 643.56 306.394 640.973 305.337 638.024C304.28 635.019 303.751 631.792 303.751 628.342V588.53Z" fill="#173300"/>
<path d="M200.253 595.708V651.461H192.408V595.708H177.468V588.53H215.193V595.708H200.253Z" fill="#173300"/>
<path d="M89.2384 596.709L82.9787 600.465C81.8102 598.462 80.4192 596.987 78.8056 596.041C77.192 595.04 75.2167 594.539 72.8797 594.539C70.2089 594.539 67.7885 595.374 65.6185 597.043C63.4484 598.712 62.3634 600.854 62.3634 603.47C62.3634 605.695 63.198 607.531 64.8673 608.978C66.5366 610.369 68.6231 611.538 71.127 612.484L75.634 614.236C78.0266 615.182 80.141 616.212 81.9772 617.324C83.869 618.437 85.5104 619.745 86.9015 621.247C88.2925 622.694 89.3497 624.419 90.0731 626.422C90.852 628.369 91.2415 630.623 91.2415 633.182C91.2415 635.964 90.7129 638.58 89.6557 641.028C88.6542 643.42 87.2353 645.507 85.3991 647.288C83.563 649.068 81.4207 650.431 78.9725 651.377C76.5243 652.323 73.9091 652.796 71.127 652.796C68.6231 652.796 66.2583 652.351 64.0327 651.461C61.807 650.626 59.8317 649.402 58.1068 647.788C56.3819 646.175 54.963 644.311 53.8502 642.196C52.7374 640.026 52.014 637.689 51.6802 635.185L59.6091 633.516C59.6091 636.966 60.7776 639.832 63.1146 642.113C65.5072 644.339 68.4006 645.451 71.7947 645.451C75.1332 645.451 77.8875 644.255 80.0575 641.862C82.2832 639.414 83.396 636.521 83.396 633.182C83.396 630.122 82.2554 627.563 79.9741 625.504C79.0838 624.669 77.9988 623.918 76.719 623.25C75.4949 622.583 74.1038 621.915 72.5459 621.247L68.2058 619.411C66.1471 618.521 64.3387 617.63 62.7807 616.74C61.2228 615.794 59.8039 614.709 58.5241 613.485C57.3 612.205 56.3263 610.759 55.6029 609.145C54.8796 607.476 54.5179 605.584 54.5179 603.47C54.5179 601.021 55.0187 598.796 56.0202 596.793C57.0218 594.734 58.385 593.009 60.1099 591.618C61.8905 590.171 63.8936 589.086 66.1192 588.363C68.3449 587.584 70.654 587.194 73.0466 587.194C76.5521 587.194 79.6958 588.029 82.4779 589.698C85.26 591.312 87.5135 593.649 89.2384 596.709Z" fill="#173300"/>
<path d="M747.473 619.995C747.473 615.874 746.716 611.925 745.2 608.146L744.886 607.393C743.269 603.637 741.065 600.321 738.274 597.445L737.708 596.876C734.704 593.816 731.198 591.451 727.192 589.782C723.186 588.057 718.957 587.194 714.505 587.194C710.054 587.194 705.826 588.057 701.82 589.782C697.814 591.451 694.28 593.816 691.219 596.876C688.215 599.881 685.85 603.386 684.125 607.393L683.812 608.146C682.296 611.925 681.538 615.874 681.538 619.995C681.538 624.558 682.372 628.871 684.042 632.933C685.766 636.939 688.132 640.444 691.136 643.448C694.197 646.397 697.73 648.707 701.736 650.376C705.742 651.99 709.999 652.796 714.505 652.796C718.731 652.796 722.736 652.087 726.521 650.669L727.276 650.376C731.282 648.707 734.787 646.397 737.792 643.448C740.66 640.631 742.919 637.375 744.565 633.678L744.886 632.933C746.611 628.871 747.473 624.558 747.473 619.995ZM738.914 619.995C738.914 616.842 738.389 613.864 737.344 611.056L737.128 610.496L737.126 610.492C736.011 607.652 734.446 605.149 732.431 602.979L732.022 602.551L732.016 602.544L732.01 602.538C729.992 600.368 727.594 598.669 724.811 597.442L724.25 597.204L724.243 597.201L724.236 597.197C721.273 595.904 718.032 595.254 714.505 595.254C710.979 595.254 707.709 595.905 704.688 597.199L704.682 597.202C701.713 598.444 699.124 600.223 696.912 602.544C694.752 604.811 693.077 607.459 691.885 610.492L691.883 610.496C690.695 613.468 690.098 616.632 690.098 619.995C690.098 623.407 690.72 626.622 691.96 629.646C693.18 632.49 694.825 634.997 696.897 637.171L697.317 637.602C699.589 639.873 702.182 641.629 705.099 642.872C708.07 644.114 711.204 644.736 714.505 644.736V645.451C711.324 645.451 708.288 644.889 705.4 643.765L704.824 643.532C702.007 642.332 699.483 640.668 697.253 638.539L696.812 638.106C694.475 635.77 692.639 633.044 691.303 629.928C690.023 626.812 689.383 623.501 689.383 619.995C689.383 616.761 689.922 613.698 690.998 610.807L691.219 610.23C692.443 607.115 694.168 604.388 696.394 602.051C698.675 599.658 701.346 597.822 704.407 596.542C707.523 595.207 710.889 594.539 714.505 594.539C718.122 594.539 721.461 595.207 724.521 596.542C727.637 597.822 730.308 599.658 732.534 602.051C734.815 604.388 736.567 607.115 737.792 610.23C739.016 613.291 739.628 616.545 739.628 619.995L739.621 620.65C739.542 623.914 738.876 627.007 737.625 629.928C736.345 633.043 734.537 635.77 732.2 638.106C729.863 640.443 727.164 642.252 724.104 643.532C721.099 644.812 717.9 645.451 714.505 645.451V644.736C717.807 644.736 720.911 644.115 723.824 642.874L723.829 642.872C726.803 641.628 729.424 639.872 731.695 637.602C733.963 635.333 735.719 632.686 736.963 629.656L736.968 629.646C738.264 626.622 738.914 623.407 738.914 619.995ZM748.188 619.995C748.188 624.65 747.308 629.059 745.544 633.212C743.839 637.303 741.421 640.888 738.292 643.959C735.221 646.974 731.638 649.333 727.55 651.036L727.542 651.039C723.448 652.688 719.1 653.511 714.505 653.511C710.198 653.511 706.108 652.788 702.24 651.339L701.469 651.039L701.461 651.036C697.63 649.44 694.219 647.268 691.232 644.521L690.64 643.963L690.63 643.954C687.752 641.076 685.45 637.748 683.723 633.976L683.385 633.215L683.38 633.204C681.674 629.053 680.823 624.647 680.823 619.995C680.823 615.503 681.705 611.206 683.468 607.11C685.228 603.023 687.644 599.441 690.714 596.371C693.839 593.247 697.448 590.83 701.537 589.125C705.634 587.361 709.959 586.48 714.505 586.479C719.052 586.479 723.378 587.361 727.475 589.125H727.474C731.561 590.829 735.141 593.243 738.209 596.366C741.141 599.245 743.474 602.574 745.205 606.349L745.542 607.11C747.306 611.206 748.188 615.503 748.188 619.995Z" fill="#173300"/>
<path d="M582.85 588.53V651.461H590.695V588.53H582.85ZM591.41 652.176H582.134V587.815H591.41V652.176Z" fill="#173300"/>
<path d="M442.749 587.815H456.484V588.53H443.463V651.461H456.233C461.241 651.461 465.887 650.821 470.171 649.541C474.511 648.206 478.296 646.203 481.523 643.532C484.601 641.028 487.018 637.937 488.775 634.26L489.118 633.517C490.787 629.761 491.674 625.467 491.778 620.635L491.789 619.661C491.789 614.542 490.871 610.035 489.035 606.141C487.254 602.19 484.722 598.935 481.439 596.376C478.212 593.761 474.456 591.813 470.171 590.533C466.207 589.281 461.949 588.616 457.398 588.538L456.484 588.53V587.815C461.446 587.815 466.082 588.492 470.387 589.852H470.386C474.744 591.155 478.578 593.14 481.878 595.812C485.254 598.443 487.855 601.789 489.681 605.836C491.57 609.842 492.503 614.457 492.503 619.661L492.493 620.65C492.387 625.56 491.485 629.95 489.771 633.807C487.946 637.912 485.346 641.342 481.973 644.086C478.669 646.819 474.802 648.865 470.382 650.225L470.376 650.227C466.018 651.528 461.302 652.176 456.233 652.176H442.749V587.815ZM483.228 619.995C483.228 615.625 482.463 611.957 480.966 608.964L480.964 608.96C479.551 606.082 477.648 603.761 475.256 601.984L474.772 601.637C472.294 599.917 469.427 598.641 466.163 597.815L465.504 597.656L465.501 597.655C462.22 596.886 458.664 596.476 454.833 596.428L454.063 596.423H452.024V643.568H454.063V644.283H451.309V595.708H454.063C458.236 595.708 462.103 596.125 465.665 596.96C469.281 597.795 472.453 599.158 475.179 601.05C477.906 602.942 480.048 605.473 481.606 608.645C483.164 611.76 483.943 615.544 483.943 619.995C483.943 624.391 483.164 628.175 481.606 631.347C480.048 634.463 477.906 636.967 475.179 638.858L474.664 639.207C472.059 640.922 469.087 642.197 465.749 643.031L465.077 643.183C461.699 643.916 458.028 644.283 454.063 644.283V643.568C458.245 643.568 462.085 643.155 465.585 642.335C469.067 641.463 472.126 640.106 474.772 638.271C477.395 636.45 479.459 634.041 480.966 631.026C482.464 627.975 483.228 624.305 483.228 619.995Z" fill="#173300"/>
<path d="M311.597 625.671V588.53H303.751V628.342L303.757 628.986C303.819 632.194 304.346 635.207 305.337 638.023C306.395 640.972 307.924 643.56 309.927 645.785C311.93 648.011 314.351 649.736 317.189 650.96C319.849 652.108 322.827 652.717 326.124 652.789L326.788 652.796C330.348 652.796 333.548 652.184 336.385 650.96C339.098 649.812 341.395 648.249 343.276 646.271L343.647 645.869C345.525 643.783 346.987 641.353 348.034 638.582L348.237 638.023C349.228 635.207 349.755 632.194 349.817 628.986L349.823 628.342V588.53H341.977V625.671C341.977 628.453 341.727 631.013 341.226 633.35C340.781 635.631 339.974 637.689 338.806 639.525C337.693 641.362 336.135 642.809 334.132 643.866L333.751 644.058C331.821 644.987 329.5 645.451 326.788 645.451V644.736C329.596 644.736 331.923 644.223 333.798 643.233C335.693 642.233 337.153 640.874 338.195 639.155L338.203 639.142C339.32 637.386 340.096 635.412 340.525 633.213L340.527 633.199C341.015 630.919 341.262 628.41 341.262 625.671V587.815H350.538V628.342L350.532 629C350.468 632.278 349.93 635.367 348.912 638.261C347.893 641.156 346.443 643.708 344.56 645.911L344.178 646.347C342.156 648.6 339.648 650.354 336.667 651.615L336.668 651.616C333.729 652.884 330.431 653.511 326.788 653.511C323.144 653.511 319.846 652.884 316.906 651.616C313.977 650.353 311.47 648.568 309.396 646.264C307.457 644.109 305.95 641.629 304.874 638.829L304.665 638.265L304.663 638.261C303.576 635.174 303.037 631.866 303.037 628.342V587.815H312.312V625.671L312.322 626.689C312.37 629.033 312.585 631.201 312.963 633.196C313.448 635.402 314.224 637.382 315.289 639.142C316.388 640.869 317.878 642.232 319.776 643.233C321.652 644.223 323.979 644.736 326.788 644.736V645.451L326.25 645.445C323.767 645.387 321.625 644.925 319.824 644.058L319.443 643.866C317.44 642.809 315.854 641.362 314.685 639.525C313.572 637.689 312.766 635.631 312.265 633.35C311.876 631.305 311.656 629.09 311.607 626.704L311.597 625.671Z" fill="#173300"/>
<path d="M177.467 588.53V595.708H192.408V651.461H200.253V595.708H215.193V588.53H177.467ZM215.908 596.423H200.968V652.176H191.693V596.423H176.752V587.815H215.908V596.423Z" fill="#173300"/>
<path d="M60.3237 632.636V633.517L60.3364 634.122C60.465 637.116 61.5586 639.593 63.6099 641.598C65.8629 643.69 68.5774 644.736 71.7944 644.736V645.451C68.4005 645.451 65.5072 644.339 63.1147 642.113C60.7778 639.832 59.6089 636.966 59.6089 633.517L51.6802 635.186C52.014 637.689 52.7373 640.026 53.8501 642.196C54.9629 644.311 56.382 646.175 58.1069 647.789C59.8318 649.403 61.8072 650.626 64.0327 651.461C66.1191 652.295 68.3278 652.739 70.6587 652.791L71.1274 652.796C73.7355 652.796 76.1966 652.38 78.5112 651.549L78.9722 651.378C81.2673 650.491 83.294 649.237 85.0513 647.617L85.3989 647.288C87.2351 645.508 88.6542 643.421 89.6558 641.028C90.6469 638.733 91.1729 636.291 91.2349 633.702L91.2417 633.183C91.2417 630.623 90.8517 628.369 90.0728 626.422C89.3494 624.419 88.2928 622.694 86.9019 621.247C85.5108 619.745 83.8689 618.437 81.9771 617.324C80.141 616.211 78.0267 615.182 75.6343 614.236L71.1274 612.483C68.6237 611.538 66.5369 610.369 64.8677 608.979C63.3028 607.622 62.4714 605.924 62.3735 603.883L62.3638 603.47C62.3638 601.018 63.3168 598.982 65.2241 597.361L65.6187 597.043C67.7885 595.374 70.2088 594.539 72.8794 594.539C75.2163 594.539 77.1916 595.04 78.8052 596.042C80.4188 596.988 81.8105 598.462 82.979 600.465L89.2388 596.709C87.5139 593.649 85.2601 591.312 82.478 589.698C79.6959 588.029 76.5518 587.194 73.0464 587.194C70.654 587.194 68.3451 587.584 66.1196 588.363C63.894 589.087 61.8904 590.171 60.1099 591.618C58.385 593.009 57.0216 594.734 56.02 596.793L55.8384 597.171C54.9581 599.075 54.5181 601.174 54.5181 603.47L54.522 603.863C54.5643 605.82 54.9248 607.58 55.603 609.146C56.3263 610.759 57.2999 612.206 58.5239 613.485C59.8037 614.709 61.2228 615.794 62.7808 616.74C64.3387 617.63 66.1469 618.521 68.2056 619.411L72.5454 621.247C74.1034 621.915 75.4951 622.583 76.7192 623.251C77.9988 623.919 79.0839 624.669 79.9741 625.504C82.2554 627.563 83.396 630.122 83.396 633.183L83.3833 633.804C83.2528 636.881 82.1436 639.567 80.0571 641.862C77.8871 644.255 75.1329 645.451 71.7944 645.451V644.736C74.9389 644.736 77.4994 643.619 79.5288 641.382C81.6336 639.067 82.6811 636.345 82.6812 633.183C82.6812 630.504 81.7548 628.256 79.8823 626.4L79.4956 626.035L79.4849 626.025C78.7542 625.34 77.8751 624.707 76.8413 624.129L76.3882 623.885L76.3765 623.878C75.1765 623.223 73.8074 622.565 72.2671 621.905L67.9272 620.069L67.9224 620.067C66.1049 619.281 64.4742 618.493 63.0327 617.701L62.4263 617.361L62.4175 617.356L61.8159 616.98C60.4458 616.098 59.1834 615.105 58.0298 614.002L58.0181 613.991L58.0073 613.979C56.8869 612.808 55.9662 611.502 55.2466 610.062L54.9507 609.438L54.9468 609.43C54.1788 607.657 53.8032 605.666 53.8032 603.47C53.8032 600.921 54.3247 598.584 55.3804 596.473C56.4256 594.327 57.8524 592.521 59.6587 591.063L60.0083 590.786C61.7699 589.421 63.7346 588.387 65.8979 587.684C68.196 586.881 70.5799 586.48 73.0464 586.479C76.6667 586.479 79.9366 587.343 82.8364 589.08C85.5576 590.658 87.7852 592.896 89.521 595.774L89.8608 596.358L90.2026 596.965L82.7261 601.45L82.3608 600.825C81.2396 598.903 79.9289 597.529 78.4438 596.658L78.436 596.653L78.4282 596.649C76.9513 595.733 75.1138 595.254 72.8794 595.254C70.3706 595.254 68.1025 596.034 66.0542 597.609C64.0505 599.151 63.0786 601.088 63.0786 603.47L63.0874 603.844C63.1748 605.692 63.9179 607.209 65.3335 608.437C66.8281 609.68 68.6881 610.751 70.9263 611.64L71.3794 611.815L71.3862 611.817L75.8931 613.57L75.897 613.571C78.3198 614.529 80.4717 615.576 82.3481 616.713C84.2926 617.858 85.9864 619.207 87.4263 620.762C88.8812 622.277 89.9833 624.079 90.7368 626.156C91.5561 628.205 91.9565 630.552 91.9565 633.183L91.9497 633.72C91.8856 636.396 91.3409 638.929 90.312 641.312C89.2739 643.789 87.8016 645.954 85.897 647.801C83.9901 649.65 81.7653 651.064 79.23 652.044C76.6948 653.023 73.9921 653.511 71.1274 653.511C68.5367 653.511 66.0809 653.051 63.7671 652.125C61.6043 651.312 59.6663 650.143 57.9575 648.62L57.6187 648.311C55.8348 646.642 54.3669 644.713 53.2173 642.529L53.2144 642.522C52.135 640.418 51.4105 638.163 51.0405 635.763L50.9712 635.28L50.8843 634.623L60.3237 632.636Z" fill="#173300"/>
</svg>
